<?xml version="1.0" standalone="no"?>
<!DOCTYPE svg PUBLIC "-//W3C//DTD SVG 20010904//EN"
 "http://www.w3.org/TR/2001/REC-SVG-20010904/DTD/svg10.dtd">
<svg version="1.0" xmlns="http://www.w3.org/2000/svg"
 width="235.000000pt" height="235.000000pt" viewBox="0 0 235.000000 235.000000"
 preserveAspectRatio="xMidYMid meet">
<metadata>
Created by potrace 1.11, written by Peter Selinger 2001-2013
</metadata>
<g transform="translate(0.000000,235.000000) scale(0.100000,-0.100000)"
fill="#000000" stroke="none">
<path d="M906 2281 c-251 -83 -369 -371 -247 -609 78 -153 266 -250 433 -224
193 29 335 169 369 360 32 178 -67 365 -238 449 -68 33 -84 37 -167 40 -69 2
-105 -2 -150 -16z m77 -416 c15 -8 75 -55 132 -105 101 -88 106 -91 127 -76
42 30 88 14 107 -37 21 -55 -75 -140 -154 -135 -35 3 -40 6 -43 28 -2 16 9 43
27 69 l29 44 -97 85 c-106 93 -147 122 -173 122 -10 0 -33 -14 -53 -31 -39
-34 -60 -32 -29 2 18 21 68 48 89 49 6 0 23 -7 38 -15z"/>
<path d="M1221 1633 c-67 -77 -65 -121 3 -102 38 11 73 36 99 72 19 24 19 27
3 51 -26 40 -58 34 -105 -21z"/>
<path d="M619 1551 c-77 -25 -135 -102 -204 -270 -176 -429 -167 -901 20
-1109 100 -111 181 -126 642 -119 333 5 402 12 510 51 128 46 194 146 164 248
-36 118 -184 176 -477 185 -148 5 -170 4 -255 -18 -134 -34 -255 -33 -324 3
-90 47 -142 121 -170 240 -19 84 -29 279 -17 353 8 53 10 42 11 -92 3 -353 84
-498 287 -511 101 -6 148 4 507 109 37 11 76 30 87 41 28 31 26 83 -5 113 -31
31 -63 32 -323 5 -159 -17 -228 -18 -244 -6 -1 0 -4 147 -7 326 -6 323 -6 325
-31 369 -14 24 -36 53 -50 63 -30 22 -85 30 -121 19z"/>
<path d="M2017 1185 c-8 -7 -87 -136 -176 -287 l-163 -273 -151 0 c-138 -1
-160 -4 -242 -29 -49 -16 -94 -32 -100 -37 -5 -5 88 -9 224 -9 222 0 234 1
272 23 34 19 62 60 209 304 94 155 170 288 170 296 0 21 -27 29 -43 12z"/>
</g>
</svg>
